<svg version="1.1" id="Layer_1" xmlns="http://www.w3.org/2000/svg" xmlns:xlink="http://www.w3.org/1999/xlink" x="0px" y="0px"
	 width="100%" viewBox="0 0 360 360" enable-background="new 0 0 360 360" xml:space="preserve">
<path fill="#47704C" opacity="1.000000" stroke="none" 
	d="
M170.000000,361.000000 
	C113.352821,361.000000 57.205650,361.000000 1.029236,361.000000 
	C1.029236,241.061142 1.029236,121.122269 1.029236,1.091700 
	C120.897163,1.091700 240.794418,1.091700 360.845825,1.091700 
	C360.845825,120.999847 360.845825,240.999908 360.845825,361.000000 
	C297.455627,361.000000 233.977814,361.000000 170.000000,361.000000 
M181.519577,190.052689 
	C181.345123,190.062454 181.170654,190.072205 180.276367,189.824982 
	C177.768005,189.256577 175.259644,188.688187 172.089783,187.898911 
	C169.139648,187.216995 166.189499,186.535080 162.521881,185.392410 
	C157.002548,183.981522 151.483215,182.570648 145.132660,180.972763 
	C143.426804,180.660721 141.720963,180.348663 139.524796,179.651810 
	C134.000122,178.472824 128.475464,177.293854 122.194664,175.892410 
	C112.150993,175.015549 102.107315,174.138672 91.242111,173.140213 
	C87.865097,173.850616 84.488075,174.561005 80.431686,175.474945 
	C75.958023,178.647675 71.484360,181.820404 66.479057,185.403427 
	C54.447189,198.934372 59.569073,215.395172 70.967041,224.170410 
	C77.295631,229.042740 84.456711,232.843552 91.323402,236.993561 
	C92.096672,237.460922 93.396629,237.056793 94.499367,237.056793 
	C87.348656,231.461578 80.073540,226.506516 73.729759,220.558197 
	C69.137611,216.252319 64.776634,210.978256 66.573257,203.671280 
	C67.538368,199.746109 68.920700,195.923538 70.782715,191.897995 
	C73.883728,189.609024 76.835533,187.073959 80.117805,185.083954 
	C86.338425,181.312500 93.341934,183.233337 100.732529,182.662842 
	C102.441101,182.663284 104.161995,182.532318 105.855736,182.690994 
	C109.598190,183.041626 113.326981,183.538025 117.590019,184.329300 
	C118.063751,184.766678 118.482971,185.496613 119.019577,185.596603 
	C124.970306,186.705490 130.939240,187.716751 137.531952,188.955597 
	C139.302933,189.275711 141.073914,189.595810 143.313644,190.253983 
	C149.481705,192.206772 155.649765,194.159546 162.188629,196.713394 
	C166.135620,200.827713 170.082626,204.942032 174.049072,209.815628 
	C178.589737,217.934662 178.320023,226.060349 173.634750,234.673569 
	C171.102020,236.878891 168.569290,239.084229 165.326797,241.549118 
	C158.370224,244.808304 151.128632,244.423950 143.136017,243.010468 
	C140.800003,241.993469 138.464005,240.976471 135.897156,239.507034 
	C135.293503,239.196091 134.689865,238.885147 134.303482,238.615555 
	C134.303482,238.615555 134.344437,238.398224 134.014084,237.924500 
	C133.169022,237.129517 132.323944,236.334549 131.488266,235.521362 
	C131.488266,235.521362 131.480453,235.505386 131.097794,234.891724 
	C128.301346,227.722824 125.504906,220.553909 122.640152,213.209885 
	C122.218307,213.840332 121.421387,214.483139 121.388512,215.162903 
	C120.914551,224.961578 120.482040,234.763641 120.234062,244.569839 
	C120.206673,245.653168 121.149651,247.467621 122.026726,247.750061 
	C126.921494,249.326355 131.934586,250.535248 137.610825,251.945755 
	C137.845398,251.923279 138.079987,251.900818 139.033493,252.016983 
	C140.304672,252.321808 141.565216,252.683975 142.848785,252.922058 
	C150.389938,254.320847 157.803299,254.185883 165.596619,251.094574 
	C168.073792,250.380692 170.550964,249.666809 173.671082,248.965912 
	C174.145630,248.348740 174.620178,247.731567 175.108902,247.097397 
	C175.108902,247.097397 175.130814,247.080566 175.670868,246.976288 
	C178.803024,245.012512 181.935196,243.048752 185.552994,240.906296 
	C185.743011,240.628021 185.933029,240.349762 186.775116,239.728485 
	C187.831680,237.878082 188.888245,236.027679 190.401657,233.927948 
	C197.119095,224.338791 196.859375,213.658035 195.227417,202.417374 
	C196.485245,202.287521 197.732635,202.158752 199.407852,202.368805 
	C201.927750,202.587509 204.447647,202.806229 207.514786,203.408920 
	C208.703796,203.861206 209.880356,204.663254 211.083939,204.706085 
	C216.703384,204.906052 222.330292,204.896454 228.805710,205.059982 
	C234.853378,204.661606 240.901047,204.263229 247.588577,203.770859 
	C261.043671,201.845154 273.872467,198.225601 285.699249,190.944458 
	C283.529266,189.076904 282.269073,187.992355 281.732086,186.841965 
	C284.798584,185.467728 287.865112,184.093491 291.516296,182.398209 
	C295.277740,179.598618 299.039185,176.799026 303.127075,173.413254 
	C302.994110,172.466385 302.861115,171.519501 303.274384,170.231110 
	C303.859650,169.973495 304.444916,169.715897 305.343414,169.221252 
	C305.771790,168.701065 306.200165,168.180878 307.083405,167.323547 
	C307.242340,167.221741 307.401276,167.119949 308.237000,167.162201 
	C316.465393,163.603897 322.856445,157.787140 328.402313,150.808060 
	C324.968201,151.672455 322.270630,153.673111 319.293945,155.085510 
	C315.447998,156.910355 312.275604,161.163818 307.771698,158.531631 
	C309.790100,157.297119 311.808502,156.062607 314.486572,154.668671 
	C324.382690,146.981339 334.449646,139.444687 338.750366,126.761574 
	C330.798859,133.514709 322.847351,140.267853 314.206207,147.170120 
	C307.498108,150.816605 300.790009,154.463074 293.294830,158.038269 
	C287.259521,160.385773 281.224213,162.733292 274.389008,165.183777 
	C268.238403,167.005127 262.087830,168.826462 255.937225,170.647812 
	C259.648010,171.514587 263.257507,171.943558 266.716400,171.405167 
	C270.966675,170.743637 275.091217,169.274429 279.866486,168.209061 
	C282.672272,168.169693 285.478027,168.130325 288.102814,168.821243 
	C285.782684,169.890793 283.462524,170.960342 280.104645,172.066666 
	C278.821777,172.428940 277.538879,172.791229 275.390991,173.161163 
	C270.628571,174.147766 265.866150,175.134384 260.236023,176.112869 
	C250.458939,177.247864 240.681854,178.382874 230.904770,179.517868 
	C241.761917,182.963196 252.902298,181.977570 264.835480,181.770859 
	C266.521515,181.315659 268.198822,180.824493 269.895447,180.412933 
	C273.146240,179.624359 276.407990,178.881027 280.227539,178.546127 
	C281.204163,178.654022 282.180756,178.761932 282.789337,179.495697 
	C279.500214,181.000977 276.211060,182.506256 272.104523,184.093582 
	C268.442688,184.746414 264.780853,185.399246 260.224030,186.050125 
	C257.171082,186.450272 254.118134,186.850418 250.258835,187.122498 
	C249.456696,187.238495 248.654556,187.354492 247.233109,187.386719 
	C246.633499,187.533600 246.033875,187.680481 244.823761,187.782959 
	C244.628189,187.841156 244.432632,187.899353 243.277145,187.853806 
	C228.170410,187.212677 213.063660,186.571564 197.956924,185.930435 
	C197.887802,186.471222 197.818680,187.012024 197.749557,187.552811 
	C208.152786,189.326126 218.556000,191.099426 230.149033,193.033005 
	C232.952454,193.219711 235.755875,193.406418 238.078903,193.544281 
	C243.061310,193.610443 248.043701,193.676620 253.542725,193.802597 
	C253.710266,193.758087 253.877808,193.713562 254.655914,193.744400 
	C255.727066,193.160965 256.798218,192.577515 258.541046,192.154648 
	C259.383270,192.366577 260.225494,192.578491 261.865967,192.646469 
	C266.026794,191.635239 270.187592,190.624008 274.258179,190.439346 
	C272.840851,191.544312 271.566193,193.287384 269.981049,193.641815 
	C263.704559,195.045212 257.330841,196.013855 250.334824,197.112717 
	C249.897049,197.144836 249.459274,197.176941 248.086212,197.130020 
	C242.394958,197.199966 236.703720,197.269913 230.168106,197.217209 
	C228.745605,197.203522 227.323120,197.189835 225.183578,197.111252 
	C221.442825,196.796356 217.702072,196.481445 213.149124,196.061295 
	C210.410339,195.733002 207.671570,195.404709 204.888199,195.012695 
	C204.888199,195.012695 204.825516,195.058762 204.231155,194.752533 
	C203.154648,194.568069 202.078156,194.383606 200.220535,194.024261 
	C195.177170,193.061661 190.133789,192.099045 184.509308,190.833099 
	C183.677521,190.631042 182.845749,190.428986 181.519577,190.052689 
M177.644196,175.460999 
	C175.777649,174.272461 173.911102,173.083923 171.894043,171.245621 
	C169.896576,169.712952 167.899094,168.180267 165.457520,166.075317 
	C163.064362,164.405212 160.671188,162.735092 157.965500,160.518372 
	C157.008057,159.803513 156.050629,159.088654 154.659012,157.811203 
	C151.675232,154.772293 148.691437,151.733398 145.294281,148.046844 
	C140.813049,141.222565 140.934601,134.124283 144.598892,126.531029 
	C146.109894,125.034363 147.620911,123.537704 149.900818,121.869507 
	C151.858322,120.815857 153.815826,119.762207 156.430161,118.969666 
	C161.824570,118.784241 167.218979,118.598816 173.085144,118.871056 
	C176.694931,121.274414 180.304703,123.677773 183.974487,126.056541 
	C183.974487,126.056541 183.938690,126.002449 183.777573,126.482933 
	C183.834625,126.641930 183.891693,126.800926 184.236130,127.618744 
	C186.188461,132.431839 188.140808,137.244934 190.728470,143.624298 
	C191.562149,140.830368 192.285172,139.364914 192.399750,137.853363 
	C192.836853,132.087875 192.829102,126.280312 193.457352,120.539886 
	C194.182297,113.916084 193.469269,112.764580 186.017426,111.641602 
	C181.908310,111.133850 177.799179,110.626099 173.185638,110.074844 
	C167.768997,110.082550 162.352356,110.090256 156.308182,110.041031 
	C152.965073,111.054840 149.621964,112.068649 145.588776,113.094765 
	C144.393509,113.722588 143.198257,114.350418 141.299255,115.113068 
	C136.298965,118.112846 130.835907,120.629425 128.387344,127.300591 
	C121.406052,140.722961 122.642799,153.625168 131.026367,166.774887 
	C133.150574,171.550690 136.658447,174.198410 142.527390,174.253250 
	C146.390884,175.143845 150.254364,176.034439 154.723389,177.264023 
	C155.862534,177.511047 157.001663,177.758072 158.544083,178.321686 
	C160.733887,178.864532 162.923691,179.407379 165.660873,180.169479 
	C166.866104,180.447601 168.071350,180.725739 169.839798,181.304932 
	C171.280243,181.802567 172.720703,182.300217 174.819351,183.169632 
	C178.205460,183.990372 181.591568,184.811111 184.977676,185.631851 
	C185.389572,185.116745 185.801468,184.601624 186.213348,184.086517 
	C183.510803,181.372131 180.808273,178.657745 177.644196,175.460999 
z"/>
<path fill="#F8DD89" opacity="1.000000" stroke="none" 
	d="
M142.053024,173.944427 
	C136.658447,174.198410 133.150574,171.550690 131.217651,166.322433 
	C131.939850,165.579636 132.470795,165.289291 133.181335,164.627960 
	C133.574753,160.820007 133.928375,157.384903 133.973038,153.945770 
	C134.062927,147.021317 134.227219,140.081085 133.840836,133.176468 
	C133.709854,130.836090 134.890564,126.755402 129.757019,126.932739 
	C129.324951,126.924377 129.152191,126.918121 128.979446,126.911865 
	C130.835907,120.629425 136.298965,118.112846 141.818863,115.251984 
	C143.273621,116.585754 144.208771,117.780609 145.150101,119.230721 
	C145.153976,119.656181 145.151688,119.826393 144.874146,120.170593 
	C141.617325,122.269409 142.650208,124.543907 144.032349,126.848831 
	C140.934601,134.124283 140.813049,141.222565 145.265594,148.635406 
	C144.992004,151.771286 144.826340,154.329224 144.486115,156.863739 
	C143.721039,162.563477 142.869431,168.251587 142.053024,173.944427 
M142.523178,147.495193 
	C142.523178,147.495193 142.488876,147.507339 142.523178,147.495193 
z"/>
<path fill="#E6CEA4" opacity="1.000000" stroke="none" 
	d="
M172.751282,188.119781 
	C175.259644,188.688187 177.768005,189.256577 180.796341,190.112823 
	C181.533951,190.609085 181.768112,190.796890 182.023743,191.222046 
	C182.032104,191.651993 182.035553,191.823990 181.853638,192.365356 
	C181.395294,206.564346 180.924286,220.395676 181.044632,234.221878 
	C181.064636,236.521072 183.661362,238.797852 185.067368,241.084991 
	C181.935196,243.048752 178.803024,245.012512 175.326324,246.706665 
	C174.682144,242.355194 174.382477,238.273361 174.082825,234.191528 
	C178.320023,226.060349 178.589737,217.934662 174.259796,209.285583 
	C174.699417,208.341553 175.166245,207.899887 175.121811,207.517685 
	C174.369308,201.047333 173.553268,194.584381 172.751282,188.119781 
z"/>
<path fill="#D9BA75" opacity="1.000000" stroke="none" 
	d="
M70.114769,192.054672 
	C68.920700,195.923538 67.538368,199.746109 66.573257,203.671280 
	C64.776634,210.978256 69.137611,216.252319 73.729759,220.558197 
	C80.073540,226.506516 87.348656,231.461578 94.499367,237.056793 
	C93.396629,237.056793 92.096672,237.460922 91.323402,236.993561 
	C84.456711,232.843552 77.295631,229.042740 70.967041,224.170410 
	C59.569073,215.395172 54.447189,198.934372 66.983505,185.371887 
	C67.643532,187.213028 67.799103,189.085678 67.855598,190.987823 
	C67.844147,191.022659 67.931770,191.028046 68.279663,191.164459 
	C69.064880,191.548569 69.589821,191.801620 70.114769,192.054672 
z"/>
<path fill="#E6E0D4" opacity="1.000000" stroke="none" 
	d="
M198.980026,202.029984 
	C197.732635,202.158752 196.485245,202.287521 195.227417,202.417374 
	C196.859375,213.658035 197.119095,224.338791 190.067444,233.741974 
	C189.308578,231.148529 188.519272,228.740433 188.523438,226.333710 
	C188.540024,216.754669 188.982773,207.172623 188.800552,197.600586 
	C188.770157,196.003723 186.420685,194.450989 185.119446,192.651093 
	C185.096069,192.424332 185.020645,191.974686 185.034332,191.764816 
	C185.048019,191.554947 185.090424,191.136444 185.090424,191.136444 
	C190.133789,192.099045 195.177170,193.061661 200.593567,194.429260 
	C201.073761,195.960297 200.808090,197.328552 201.354309,198.169403 
	C203.433365,201.369949 201.471191,201.798462 198.980026,202.029984 
z"/>
<path fill="#D7CAB1" opacity="1.000000" stroke="none" 
	d="
M294.081909,158.109558 
	C300.790009,154.463074 307.498108,150.816605 314.721741,147.329742 
	C314.767151,149.935593 314.296997,152.381836 313.826874,154.828094 
	C311.808502,156.062607 309.790100,157.297119 307.248108,158.864227 
	C306.018188,160.026321 305.311890,160.855804 304.233521,161.647400 
	C301.672852,161.755157 300.104095,162.140701 300.650726,165.132736 
	C300.987671,166.977005 300.279022,169.012329 299.738403,171.158829 
	C297.465271,172.230209 295.441803,173.005737 293.535095,174.004333 
	C291.194092,175.230392 288.950684,176.642807 286.385193,177.971878 
	C285.432556,178.269455 284.759827,178.569809 284.106873,178.518738 
	C284.104218,175.648743 287.265045,171.582306 281.142395,172.029892 
	C283.462524,170.960342 285.782684,169.890793 288.389496,168.288696 
	C293.706329,166.349640 295.665985,163.222504 294.081909,158.109558 
z"/>
<path fill="#F2D580" opacity="1.000000" stroke="none" 
	d="
M136.907227,251.869705 
	C131.934586,250.535248 126.921494,249.326355 122.026726,247.750061 
	C121.149651,247.467621 120.206673,245.653168 120.234062,244.569839 
	C120.482040,234.763641 120.914551,224.961578 121.388512,215.162903 
	C121.421387,214.483139 122.218307,213.840332 122.640152,213.209885 
	C125.504906,220.553909 128.301346,227.722824 130.958679,235.240143 
	C130.215164,235.842392 129.361099,235.922836 129.045471,236.377274 
	C126.281868,240.356201 128.458237,247.941925 132.850845,249.936157 
	C134.214508,250.555252 135.555740,251.223785 136.907227,251.869705 
z"/>
<path fill="#F1C56E" opacity="1.000000" stroke="none" 
	d="
M142.290207,174.098846 
	C142.869431,168.251587 143.721039,162.563477 144.486115,156.863739 
	C144.826340,154.329224 144.992004,151.771286 145.472275,148.959229 
	C148.691437,151.733398 151.675232,154.772293 154.757492,158.317841 
	C154.609940,164.857986 154.363907,170.891510 154.117859,176.925034 
	C150.254364,176.034439 146.390884,175.143845 142.290207,174.098846 
z"/>
<path fill="#E8BA68" opacity="1.000000" stroke="none" 
	d="
M164.941895,250.976212 
	C157.803299,254.185883 150.389938,254.320847 142.848785,252.922058 
	C141.565216,252.683975 140.304672,252.321808 139.015808,251.917023 
	C140.298019,251.817062 141.597916,251.817062 141.590958,251.817062 
	C142.421585,248.623093 143.122711,245.927124 143.823822,243.231155 
	C151.128632,244.423950 158.370224,244.808304 165.856262,241.616791 
	C166.161835,243.149200 165.940857,244.614426 165.713196,246.078598 
	C165.459274,247.711624 165.199249,249.343719 164.941895,250.976212 
z"/>
<path fill="#E8BA68" opacity="1.000000" stroke="none" 
	d="
M145.963882,181.159760 
	C151.483215,182.570648 157.002548,183.981522 163.004303,185.870728 
	C164.533035,187.994293 165.781143,189.551880 166.548218,191.318375 
	C166.992310,192.341064 166.951553,193.813538 166.544128,194.854736 
	C166.369324,195.301422 164.692596,195.099075 163.727280,195.318924 
	C163.064911,195.469788 162.452545,195.840118 161.817825,196.112335 
	C155.649765,194.159546 149.481705,192.206772 143.129852,189.730347 
	C143.951996,186.524399 144.957932,183.842087 145.963882,181.159760 
z"/>
<path fill="#9D7830" opacity="1.000000" stroke="none" 
	d="
M281.008881,186.907791 
	C282.269073,187.992355 283.529266,189.076904 285.699249,190.944458 
	C273.872467,198.225601 261.043671,201.845154 247.246857,203.557129 
	C247.495010,199.366806 245.467377,198.087463 241.802185,198.042618 
	C238.203278,197.998611 234.608856,197.589035 231.012466,197.339874 
	C236.703720,197.269913 242.394958,197.199966 248.597015,197.410553 
	C249.494980,198.057617 249.882141,198.424133 250.269318,198.790649 
	C250.510605,198.241653 250.751892,197.692657 250.993164,197.143661 
	C257.330841,196.013855 263.704559,195.045212 269.981049,193.641815 
	C271.566193,193.287384 272.840851,191.544312 274.528503,190.004288 
	C275.082703,189.602921 275.359985,189.665619 275.969727,189.747925 
	C277.875488,188.794937 279.442169,187.851364 281.008881,186.907791 
M257.083771,198.413620 
	C256.551300,198.470154 256.014709,198.507431 255.494080,198.619110 
	C255.451523,198.628265 255.517868,199.144958 255.533600,199.425842 
	C256.049896,199.209213 256.566193,198.992599 257.083771,198.413620 
z"/>
<path fill="#E5C77E" opacity="1.000000" stroke="none" 
	d="
M128.683395,127.106232 
	C129.152191,126.918121 129.324951,126.924377 129.921051,127.317139 
	C130.560089,133.759094 130.724335,139.816940 131.006363,145.869293 
	C131.272552,151.581314 131.662643,157.287552 131.997986,163.245331 
	C131.997711,163.494324 132.005936,163.992249 132.162323,164.169342 
	C132.534698,164.576172 132.762375,164.793686 133.001740,164.998962 
	C132.470795,165.289291 131.939850,165.579636 131.125610,165.978317 
	C122.642799,153.625168 121.406052,140.722961 128.683395,127.106232 
z"/>
<path fill="#F8DD89" opacity="1.000000" stroke="none" 
	d="
M92.063644,173.261795 
	C102.107315,174.138672 112.150993,175.015549 122.275978,176.150604 
	C120.642067,176.643112 118.926849,176.877411 116.769485,177.172119 
	C118.129051,178.819748 119.221573,180.143768 120.657204,181.883575 
	C119.225067,182.716522 118.143211,183.345734 117.061348,183.974945 
	C113.326981,183.538025 109.598190,183.041626 105.855736,182.690994 
	C104.161995,182.532318 102.441101,182.663284 100.372513,182.439850 
	C100.003586,181.806870 99.994675,181.396866 100.265869,180.962982 
	C101.280563,180.875168 102.015144,180.811234 102.749733,180.747284 
	C102.713028,180.546707 102.676323,180.346130 102.639610,180.145538 
	C101.760307,180.432770 100.880997,180.720001 99.672531,180.951599 
	C96.965706,180.878479 94.588028,180.860992 92.475983,180.666550 
	C95.021774,179.053864 97.301926,177.618103 99.582077,176.182343 
	C99.390923,175.706985 99.199768,175.231628 99.008614,174.756256 
	C96.693626,174.258102 94.378632,173.759949 92.063644,173.261795 
z"/>
<path fill="#9D7830" opacity="1.000000" stroke="none" 
	d="
M186.634125,111.980804 
	C193.469269,112.764580 194.182297,113.916084 193.457352,120.539886 
	C192.829102,126.280312 192.836853,132.087875 192.399750,137.853363 
	C192.285172,139.364914 191.562149,140.830368 190.728470,143.624298 
	C188.140808,137.244934 186.188461,132.431839 184.148453,127.173767 
	C184.135941,126.471535 184.095245,126.229424 183.938690,126.002449 
	C183.938690,126.002449 183.974487,126.056541 183.956268,125.651901 
	C184.836731,120.825119 185.735428,116.402962 186.634125,111.980804 
z"/>
<path fill="#E0C37D" opacity="1.000000" stroke="none" 
	d="
M99.985764,180.986877 
	C99.994675,181.396866 100.003586,181.806870 100.018692,182.524338 
	C93.341934,183.233337 86.338425,181.312500 80.117805,185.083954 
	C76.835533,187.073959 73.883728,189.609024 70.448746,191.976334 
	C69.589821,191.801620 69.064880,191.548569 68.264214,191.145065 
	C67.988487,190.994629 67.954666,190.958344 67.954666,190.958344 
	C67.799103,189.085678 67.643532,187.213028 67.249329,185.166748 
	C71.484360,181.820404 75.958023,178.647675 81.007874,175.533249 
	C83.794945,180.035660 87.837906,180.772903 92.210350,180.843506 
	C94.588028,180.860992 96.965706,180.878479 99.670280,180.946655 
	C99.997177,180.997345 99.985764,180.986877 99.985764,180.986877 
z"/>
<path fill="#E9D4B3" opacity="1.000000" stroke="none" 
	d="
M185.020645,191.974686 
	C185.020645,191.974686 185.096069,192.424332 185.083420,193.132370 
	C184.912308,201.827713 184.498169,209.820526 184.669998,217.800720 
	C184.830017,225.231308 185.613846,232.648438 186.123077,240.071503 
	C185.933029,240.349762 185.743011,240.628021 185.310181,240.995636 
	C183.661362,238.797852 181.064636,236.521072 181.044632,234.221878 
	C180.924286,220.395676 181.395294,206.564346 182.225067,192.363998 
	C183.528107,191.987076 184.274384,191.980881 185.020645,191.974686 
z"/>
<path fill="#E8D9C1" opacity="1.000000" stroke="none" 
	d="
M186.449097,239.899994 
	C185.613846,232.648438 184.830017,225.231308 184.669998,217.800720 
	C184.498169,209.820526 184.912308,201.827713 185.106812,193.359131 
	C186.420685,194.450989 188.770157,196.003723 188.800552,197.600586 
	C188.982773,207.172623 188.540024,216.754669 188.523438,226.333710 
	C188.519272,228.740433 189.308578,231.148529 189.839020,233.866623 
	C188.888245,236.027679 187.831680,237.878082 186.449097,239.899994 
z"/>
<path fill="#A5853D" opacity="1.000000" stroke="none" 
	d="
M314.156738,154.748383 
	C314.296997,152.381836 314.767151,149.935593 315.066559,147.255173 
	C322.847351,140.267853 330.798859,133.514709 338.750366,126.761574 
	C334.449646,139.444687 324.382690,146.981339 314.156738,154.748383 
z"/>
<path fill="#D7CAB1" opacity="1.000000" stroke="none" 
	d="
M156.935715,110.097961 
	C162.352356,110.090256 167.768997,110.082550 173.311218,110.237167 
	C173.162338,113.070793 172.887863,115.742096 172.613388,118.413391 
	C167.218979,118.598816 161.824570,118.784241 156.142044,118.617432 
	C156.214523,115.542778 156.575119,112.820366 156.935715,110.097961 
z"/>
<path fill="#F2CC76" opacity="1.000000" stroke="none" 
	d="
M143.479919,243.120819 
	C143.122711,245.927124 142.421585,248.623093 141.590958,251.817062 
	C141.597916,251.817062 140.298019,251.817062 138.656342,251.847702 
	C138.079987,251.900818 137.845398,251.923279 137.259033,251.907730 
	C135.555740,251.223785 134.214508,250.555252 132.850845,249.936157 
	C128.458237,247.941925 126.281868,240.356201 129.045471,236.377274 
	C129.361099,235.922836 130.215164,235.842392 131.150009,235.546967 
	C131.480453,235.505386 131.488266,235.521362 131.430420,235.871704 
	C131.289825,238.413284 131.970459,239.561996 134.344437,238.398224 
	C134.344437,238.398224 134.303482,238.615555 134.365967,238.791977 
	C134.994980,239.298767 135.561493,239.629120 136.128006,239.959473 
	C138.464005,240.976471 140.800003,241.993469 143.479919,243.120819 
M129.505142,239.525696 
	C129.505142,239.525696 129.492249,239.487106 129.505142,239.525696 
z"/>
<path fill="#F0D484" opacity="1.000000" stroke="none" 
	d="
M228.959229,192.872742 
	C218.556000,191.099426 208.152786,189.326126 197.749557,187.552811 
	C197.818680,187.012024 197.887802,186.471222 197.956924,185.930435 
	C213.063660,186.571564 228.170410,187.212677 243.721634,188.066391 
	C244.135986,188.493454 244.111496,188.708588 243.675507,188.882385 
	C239.241837,188.861282 235.199860,188.649185 231.228424,189.082993 
	C230.344589,189.179550 229.709076,191.549515 228.959229,192.872742 
z"/>
<path fill="#B08F46" opacity="1.000000" stroke="none" 
	d="
M172.849274,118.642227 
	C172.887863,115.742096 173.162338,113.070793 173.563446,110.258926 
	C177.799179,110.626099 181.908310,111.133850 186.325775,111.811203 
	C185.735428,116.402962 184.836731,120.825119 183.926270,125.664200 
	C180.304703,123.677773 176.694931,121.274414 172.849274,118.642227 
z"/>
<path fill="#E8C589" opacity="1.000000" stroke="none" 
	d="
M162.003235,196.412872 
	C162.452545,195.840118 163.064911,195.469788 163.727280,195.318924 
	C164.692596,195.099075 166.369324,195.301422 166.544128,194.854736 
	C166.951553,193.813538 166.992310,192.341064 166.548218,191.318375 
	C165.781143,189.551880 164.533035,187.994293 163.363052,186.101120 
	C166.189499,186.535080 169.139648,187.216995 172.420532,188.009338 
	C173.553268,194.584381 174.369308,201.047333 175.121811,207.517685 
	C175.166245,207.899887 174.699417,208.341553 174.250061,208.905945 
	C170.082626,204.942032 166.135620,200.827713 162.003235,196.412872 
z"/>
<path fill="#F2D580" opacity="1.000000" stroke="none" 
	d="
M117.325684,184.152130 
	C118.143211,183.345734 119.225067,182.716522 120.657204,181.883575 
	C119.221573,180.143768 118.129051,178.819748 116.769485,177.172119 
	C118.926849,176.877411 120.642067,176.643112 122.654045,176.261841 
	C128.475464,177.293854 134.000122,178.472824 139.492706,179.864594 
	C136.415024,179.714661 133.369431,179.351959 130.325836,178.993317 
	C129.174683,183.307114 129.581192,186.663925 135.061203,187.219879 
	C135.720322,187.286743 136.291382,188.221771 136.903244,188.754425 
	C130.939240,187.716751 124.970306,186.705490 119.019577,185.596603 
	C118.482971,185.496613 118.063751,184.766678 117.325684,184.152130 
z"/>
<path fill="#B08F46" opacity="1.000000" stroke="none" 
	d="
M230.590286,197.278534 
	C234.608856,197.589035 238.203278,197.998611 241.802185,198.042618 
	C245.467377,198.087463 247.495010,199.366806 246.926926,203.604111 
	C240.901047,204.263229 234.853378,204.661606 228.357849,204.745056 
	C227.240204,202.012131 226.570419,199.594147 225.900620,197.176147 
	C227.323120,197.189835 228.745605,197.203522 230.590286,197.278534 
z"/>
<path fill="#CDBB94" opacity="1.000000" stroke="none" 
	d="
M225.542099,197.143707 
	C226.570419,199.594147 227.240204,202.012131 227.932266,204.695953 
	C222.330292,204.896454 216.703384,204.906052 211.083939,204.706085 
	C209.880356,204.663254 208.703796,203.861206 207.574127,203.146820 
	C208.685043,202.105042 209.888947,201.463516 210.751404,200.512375 
	C211.955048,199.184967 212.903595,197.626266 213.961319,196.166550 
	C217.702072,196.481445 221.442825,196.796356 225.542099,197.143707 
z"/>
<path fill="#F0D484" opacity="1.000000" stroke="none" 
	d="
M263.993927,181.734039 
	C252.902298,181.977570 241.761917,182.963196 230.904770,179.517868 
	C240.681854,178.382874 250.458939,177.247864 260.808472,176.227539 
	C261.009216,177.242111 260.637543,178.141983 260.267365,179.041061 
	C261.510529,179.938187 262.752228,180.836121 263.993927,181.734039 
z"/>
<path fill="#E8D9C1" opacity="1.000000" stroke="none" 
	d="
M158.278030,161.064987 
	C160.671188,162.735092 163.064362,164.405212 165.720779,166.772537 
	C165.693848,171.629913 165.403671,175.790070 165.113495,179.950226 
	C162.923691,179.407379 160.733887,178.864532 158.307709,177.711990 
	C158.140228,171.756531 158.209122,166.410751 158.278030,161.064987 
z"/>
<path fill="#9D7830" opacity="1.000000" stroke="none" 
	d="
M304.605591,161.685303 
	C305.311890,160.855804 306.018188,160.026321 306.926270,159.060059 
	C312.275604,161.163818 315.447998,156.910355 319.293945,155.085510 
	C322.270630,153.673111 324.968201,151.672455 328.402313,150.808060 
	C322.856445,157.787140 316.465393,163.603897 308.084167,166.954132 
	C310.738159,162.486099 307.056396,162.490173 304.605591,161.685303 
z"/>
<path fill="#F2CC76" opacity="1.000000" stroke="none" 
	d="
M137.217590,188.855011 
	C136.291382,188.221771 135.720322,187.286743 135.061203,187.219879 
	C129.581192,186.663925 129.174683,183.307114 130.325836,178.993317 
	C133.369431,179.351959 136.415024,179.714661 139.737869,180.056976 
	C141.720963,180.348663 143.426804,180.660721 145.548279,181.066254 
	C144.957932,183.842087 143.951996,186.524399 142.895477,189.561325 
	C141.073914,189.595810 139.302933,189.275711 137.217590,188.855011 
z"/>
<path fill="#E8BA68" opacity="1.000000" stroke="none" 
	d="
M264.414703,181.752441 
	C262.752228,180.836121 261.510529,179.938187 260.267365,179.041061 
	C260.637543,178.141983 261.009216,177.242111 261.242310,176.231613 
	C265.866150,175.134384 270.628571,174.147766 275.904907,173.453522 
	C277.500946,175.203568 278.583069,176.661240 279.665192,178.118927 
	C276.407990,178.881027 273.146240,179.624359 269.895447,180.412933 
	C268.198822,180.824493 266.521515,181.315659 264.414703,181.752441 
z"/>
<path fill="#E6BD73" opacity="1.000000" stroke="none" 
	d="
M293.688354,158.073914 
	C295.665985,163.222504 293.706329,166.349640 288.479980,167.923538 
	C285.478027,168.130325 282.672272,168.169693 279.652069,168.053345 
	C278.021393,166.958710 276.605164,166.019760 275.188904,165.080811 
	C281.224213,162.733292 287.259521,160.385773 293.688354,158.073914 
z"/>
<path fill="#E8C589" opacity="1.000000" stroke="none" 
	d="
M165.269257,251.035400 
	C165.199249,249.343719 165.459274,247.711624 165.713196,246.078598 
	C165.940857,244.614426 166.161835,243.149200 166.211151,241.487000 
	C168.569290,239.084229 171.102020,236.878891 173.858780,234.432556 
	C174.382477,238.273361 174.682144,242.355194 175.056305,246.758789 
	C175.130814,247.080566 175.108902,247.097397 174.831116,247.205048 
	C174.044937,247.859436 173.536530,248.406174 173.028137,248.952927 
	C170.550964,249.666809 168.073792,250.380692 165.269257,251.035400 
M168.489960,247.480270 
	C168.489960,247.480270 168.501282,247.514786 168.489960,247.480270 
z"/>
<path fill="#F2D580" opacity="1.000000" stroke="none" 
	d="
M274.788940,165.132294 
	C276.605164,166.019760 278.021393,166.958710 279.353882,168.026001 
	C275.091217,169.274429 270.966675,170.743637 266.716400,171.405167 
	C263.257507,171.943558 259.648010,171.514587 255.937225,170.647812 
	C262.087830,168.826462 268.238403,167.005127 274.788940,165.132294 
z"/>
<path fill="#A5853D" opacity="1.000000" stroke="none" 
	d="
M281.370483,186.874878 
	C279.442169,187.851364 277.875488,188.794937 276.004272,189.482788 
	C274.773804,187.488571 273.847870,185.750061 272.921936,184.011551 
	C276.211060,182.506256 279.500214,181.000977 283.205750,179.234283 
	C283.622131,178.972885 284.087067,178.870178 284.087067,178.870178 
	C284.759827,178.569809 285.432556,178.269455 286.812042,178.051727 
	C288.674377,178.152969 289.830017,178.171585 291.041290,178.474396 
	C291.041840,180.078827 290.986725,181.399033 290.931610,182.719254 
	C287.865112,184.093491 284.798584,185.467728 281.370483,186.874878 
z"/>
<path fill="#E6BD73" opacity="1.000000" stroke="none" 
	d="
M156.621948,110.069489 
	C156.575119,112.820366 156.214523,115.542778 155.813629,118.486877 
	C153.815826,119.762207 151.858322,120.815857 149.205475,121.861343 
	C147.389893,121.234314 146.269638,120.615456 145.149384,119.996597 
	C145.151688,119.826393 145.153976,119.656181 145.422546,119.088257 
	C148.513107,117.097641 149.891251,115.352585 146.278870,113.082458 
	C149.621964,112.068649 152.965073,111.054840 156.621948,110.069489 
z"/>
<path fill="#F0D484" opacity="1.000000" stroke="none" 
	d="
M92.475983,180.666565 
	C87.837906,180.772903 83.794945,180.035660 81.347565,175.431488 
	C84.488075,174.561005 87.865097,173.850616 91.652878,173.201004 
	C94.378632,173.759949 96.693626,174.258102 99.008614,174.756256 
	C99.199768,175.231628 99.390923,175.706985 99.582077,176.182343 
	C97.301926,177.618103 95.021774,179.053864 92.475983,180.666565 
z"/>
<path fill="#E8D9C1" opacity="1.000000" stroke="none" 
	d="
M213.555222,196.113922 
	C212.903595,197.626266 211.955048,199.184967 210.751404,200.512375 
	C209.888947,201.463516 208.685043,202.105042 207.300507,202.954834 
	C204.447647,202.806229 201.927750,202.587509 199.193939,202.199402 
	C201.471191,201.798462 203.433365,201.369949 201.354309,198.169403 
	C200.808090,197.328552 201.073761,195.960297 200.984116,194.516693 
	C202.078156,194.383606 203.154648,194.568069 204.445770,194.947632 
	C204.751175,195.120621 204.841980,195.098526 204.932785,195.076431 
	C207.671570,195.404709 210.410339,195.733002 213.555222,196.113922 
z"/>
<path fill="#E8C589" opacity="1.000000" stroke="none" 
	d="
M158.121765,160.791687 
	C158.209122,166.410751 158.140228,171.756531 158.106064,177.553696 
	C157.001663,177.758072 155.862534,177.511047 154.420624,177.094528 
	C154.363907,170.891510 154.609940,164.857986 154.974579,158.599121 
	C156.050629,159.088654 157.008057,159.803513 158.121765,160.791687 
z"/>
<path fill="#CDBB94" opacity="1.000000" stroke="none" 
	d="
M272.513245,184.052567 
	C273.847870,185.750061 274.773804,187.488571 275.665222,189.492203 
	C275.359985,189.665619 275.082703,189.602921 274.573608,189.591003 
	C270.187592,190.624008 266.026794,191.635239 261.566772,192.415680 
	C262.514252,190.869720 263.760895,189.554535 265.007568,188.239349 
	C263.711395,187.510269 262.415192,186.781189 261.119019,186.052094 
	C264.780853,185.399246 268.442688,184.746414 272.513245,184.052567 
z"/>
<path fill="#E6E0D4" opacity="1.000000" stroke="none" 
	d="
M260.671509,186.051117 
	C262.415192,186.781189 263.711395,187.510269 265.007568,188.239349 
	C263.760895,189.554535 262.514252,190.869720 261.167664,192.487671 
	C260.225494,192.578491 259.383270,192.366577 257.876740,192.045273 
	C256.156738,192.513611 255.101044,193.091324 254.045349,193.669037 
	C253.877808,193.713562 253.710266,193.758087 253.298645,193.412781 
	C252.391434,191.098831 251.728317,189.174683 251.065186,187.250549 
	C254.118134,186.850418 257.171082,186.450272 260.671509,186.051117 
z"/>
<path fill="#F1C56E" opacity="1.000000" stroke="none" 
	d="
M229.554123,192.952881 
	C229.709076,191.549515 230.344589,189.179550 231.228424,189.082993 
	C235.199860,188.649185 239.241837,188.861282 243.645599,189.278870 
	C243.719025,193.142761 241.301270,193.596878 238.559296,193.593124 
	C235.755875,193.406418 232.952454,193.219711 229.554123,192.952881 
z"/>
<path fill="#D7CAB1" opacity="1.000000" stroke="none" 
	d="
M165.387177,180.059845 
	C165.403671,175.790070 165.693848,171.629913 165.942841,167.058685 
	C167.899094,168.180267 169.896576,169.712952 171.762054,171.806641 
	C170.845566,175.246414 170.061066,178.125137 169.276581,181.003876 
	C168.071350,180.725739 166.866104,180.447601 165.387177,180.059845 
z"/>
<path fill="#E6CEA4" opacity="1.000000" stroke="none" 
	d="
M238.319092,193.568695 
	C241.301270,193.596878 243.719025,193.142761 244.062759,189.320862 
	C244.111496,188.708588 244.135986,188.493454 244.201599,188.118271 
	C244.432632,187.899353 244.628189,187.841156 245.332306,187.840103 
	C246.511368,187.755005 247.181900,187.612762 247.852417,187.470505 
	C248.654556,187.354492 249.456696,187.238495 250.662018,187.186523 
	C251.728317,189.174683 252.391434,191.098831 253.040344,193.382874 
	C248.043701,193.676620 243.061310,193.610443 238.319092,193.568695 
z"/>
<path fill="#A5853D" opacity="1.000000" stroke="none" 
	d="
M178.105728,175.943359 
	C180.808273,178.657745 183.510803,181.372131 186.213348,184.086517 
	C185.801468,184.601624 185.389572,185.116745 184.977676,185.631851 
	C181.591568,184.811111 178.205460,183.990372 174.682724,182.741028 
	C175.335709,180.562302 176.125320,178.812180 176.948029,177.031845 
	C176.981125,177.001648 177.044098,176.937897 177.228241,176.780060 
	C177.651489,176.404068 177.882599,176.177780 178.105728,175.943359 
z"/>
<path fill="#B79D64" opacity="1.000000" stroke="none" 
	d="
M304.233521,161.647400 
	C307.056396,162.490173 310.738159,162.486099 307.745728,166.882111 
	C307.401276,167.119949 307.242340,167.221741 306.644958,167.557678 
	C305.814392,168.347305 305.422272,168.902786 305.030151,169.458267 
	C304.444916,169.715897 303.859650,169.973495 302.661102,170.424149 
	C301.378479,170.732086 300.709167,170.846985 300.039795,170.961884 
	C300.279022,169.012329 300.987671,166.977005 300.650726,165.132736 
	C300.104095,162.140701 301.672852,161.755157 304.233521,161.647400 
z"/>
<path fill="#B79D64" opacity="1.000000" stroke="none" 
	d="
M176.914948,177.062042 
	C176.125320,178.812180 175.335709,180.562302 174.353622,182.555145 
	C172.720703,182.300217 171.280243,181.802567 169.558197,181.154404 
	C170.061066,178.125137 170.845566,175.246414 171.837311,172.131531 
	C173.911102,173.083923 175.777649,174.272461 177.874969,175.702179 
	C177.882599,176.177780 177.651489,176.404068 177.191620,176.743057 
	C176.970825,176.863876 176.914932,177.062042 176.914948,177.062042 
z"/>
<path fill="#1C1611" opacity="1.000000" stroke="none" 
	d="
M299.738403,171.158844 
	C300.709167,170.846985 301.378479,170.732086 302.387970,170.594910 
	C302.861115,171.519501 302.994110,172.466385 302.605530,173.719803 
	C298.384552,175.414307 294.685089,176.802261 290.985626,178.190216 
	C289.830017,178.171585 288.674377,178.152969 287.091919,178.054504 
	C288.950684,176.642807 291.194092,175.230392 293.535095,174.004333 
	C295.441803,173.005737 297.465271,172.230209 299.738403,171.158844 
z"/>
<path fill="#E6CEA4" opacity="1.000000" stroke="none" 
	d="
M284.106873,178.518753 
	C284.087067,178.870178 283.622131,178.972885 283.389771,178.921356 
	C282.180756,178.761932 281.204163,178.654022 279.946350,178.332520 
	C278.583069,176.661240 277.500946,175.203568 276.337402,173.449707 
	C277.538879,172.791229 278.821777,172.428940 280.623535,172.048279 
	C287.265045,171.582306 284.104218,175.648743 284.106873,178.518753 
z"/>
<path fill="#9D7830" opacity="1.000000" stroke="none" 
	d="
M291.041290,178.474411 
	C294.685089,176.802261 298.384552,175.414307 302.442322,174.012894 
	C299.039185,176.799026 295.277740,179.598618 291.223938,182.558731 
	C290.986725,181.399033 291.041840,180.078827 291.041290,178.474411 
z"/>
<path fill="#F2CC76" opacity="1.000000" stroke="none" 
	d="
M145.933823,113.088615 
	C149.891251,115.352585 148.513107,117.097641 145.416382,118.833008 
	C144.208771,117.780609 143.273621,116.585754 142.170731,115.184570 
	C143.198257,114.350418 144.393509,113.722588 145.933823,113.088615 
z"/>
<path fill="#F2CC76" opacity="1.000000" stroke="none" 
	d="
M144.874146,120.170593 
	C146.269638,120.615456 147.389893,121.234314 148.821030,121.947105 
	C147.620911,123.537704 146.109894,125.034363 144.315613,126.689926 
	C142.650208,124.543907 141.617325,122.269409 144.874146,120.170593 
z"/>
<path fill="#F2D580" opacity="1.000000" stroke="none" 
	d="
M134.179260,238.161362 
	C131.970459,239.561996 131.289825,238.413284 131.425735,235.880814 
	C132.323944,236.334549 133.169022,237.129517 134.179260,238.161362 
z"/>
<path fill="#E6CEA4" opacity="1.000000" stroke="none" 
	d="
M254.350632,193.706726 
	C255.101044,193.091324 256.156738,192.513611 257.540894,191.964996 
	C256.798218,192.577515 255.727066,193.160965 254.350632,193.706726 
z"/>
<path fill="#B08F46" opacity="1.000000" stroke="none" 
	d="
M250.664001,197.128189 
	C250.751892,197.692657 250.510605,198.241653 250.269318,198.790649 
	C249.882141,198.424133 249.494980,198.057617 249.064667,197.450073 
	C249.459274,197.176941 249.897049,197.144836 250.664001,197.128189 
z"/>
<path fill="#E8D9C1" opacity="1.000000" stroke="none" 
	d="
M185.034332,191.764816 
	C184.274384,191.980881 183.528107,191.987076 182.410431,191.994629 
	C182.035553,191.823990 182.032104,191.651993 182.024139,191.037964 
	C182.019638,190.595932 182.013962,190.226929 182.013962,190.226929 
	C182.845749,190.428986 183.677521,190.631042 184.799866,190.984772 
	C185.090424,191.136444 185.048019,191.554947 185.034332,191.764816 
z"/>
<path fill="#E6CEA4" opacity="1.000000" stroke="none" 
	d="
M173.349609,248.959412 
	C173.536530,248.406174 174.044937,247.859436 174.824036,247.213531 
	C174.620178,247.731567 174.145630,248.348740 173.349609,248.959412 
z"/>
<path fill="#9D7830" opacity="1.000000" stroke="none" 
	d="
M305.186768,169.339752 
	C305.422272,168.902786 305.814392,168.347305 306.417542,167.726257 
	C306.200165,168.180878 305.771790,168.701065 305.186768,169.339752 
z"/>
<path fill="#F2D580" opacity="1.000000" stroke="none" 
	d="
M136.012573,239.733246 
	C135.561493,239.629120 134.994980,239.298767 134.257339,238.771301 
	C134.689865,238.885147 135.293503,239.196091 136.012573,239.733246 
z"/>
<path fill="#F0D484" opacity="1.000000" stroke="none" 
	d="
M247.542755,187.428619 
	C247.181900,187.612762 246.511368,187.755005 245.637558,187.862305 
	C246.033875,187.680481 246.633499,187.533600 247.542755,187.428619 
z"/>
<path fill="#B08F46" opacity="1.000000" stroke="none" 
	d="
M183.858124,126.242691 
	C184.095245,126.229424 184.135941,126.471535 184.004761,126.844353 
	C183.891693,126.800926 183.834625,126.641930 183.858124,126.242691 
z"/>
<path fill="#E9D4B3" opacity="1.000000" stroke="none" 
	d="
M181.766769,190.139801 
	C182.013962,190.226929 182.019638,190.595932 182.019226,190.779999 
	C181.768112,190.796890 181.533951,190.609085 181.156250,190.241302 
	C181.170654,190.072205 181.345123,190.062454 181.766769,190.139801 
z"/>
<path fill="#F0D484" opacity="1.000000" stroke="none" 
	d="
M131.998245,162.996338 
	C131.662643,157.287552 131.272552,151.581314 131.006363,145.869293 
	C130.724335,139.816940 130.560089,133.759094 130.180359,127.319244 
	C134.890564,126.755402 133.709854,130.836090 133.840836,133.176468 
	C134.227219,140.081085 134.062927,147.021317 133.973038,153.945770 
	C133.928375,157.384903 133.574753,160.820007 133.181335,164.627960 
	C132.762375,164.793686 132.534698,164.576172 132.208176,164.048080 
	C132.153641,163.488602 132.120514,163.237473 131.998245,162.996338 
z"/>
<path fill="#F1C56E" opacity="1.000000" stroke="none" 
	d="
M142.506027,147.501266 
	C142.488876,147.507339 142.523178,147.495193 142.506027,147.501266 
z"/>
<path fill="#E0C37D" opacity="1.000000" stroke="none" 
	d="
M68.003937,191.014038 
	C67.931770,191.028046 67.844147,191.022659 67.855591,190.987823 
	C67.954666,190.958344 67.988487,190.994629 68.003937,191.014038 
z"/>
<path fill="#B08F46" opacity="1.000000" stroke="none" 
	d="
M257.083130,198.594803 
	C256.566193,198.992599 256.049896,199.209213 255.533600,199.425842 
	C255.517868,199.144958 255.451523,198.628265 255.494080,198.619110 
	C256.014709,198.507431 256.551300,198.470154 257.083130,198.594803 
z"/>
<path fill="#F8DD89" opacity="1.000000" stroke="none" 
	d="
M131.997986,163.245331 
	C132.120514,163.237473 132.153641,163.488602 132.051788,163.871002 
	C132.005936,163.992249 131.997711,163.494324 131.997986,163.245331 
z"/>
<path fill="#E0C37D" opacity="1.000000" stroke="none" 
	d="
M99.999435,181.002289 
	C100.880997,180.720001 101.760307,180.432770 102.639610,180.145538 
	C102.676323,180.346130 102.713028,180.546707 102.749733,180.747284 
	C102.015144,180.811234 101.280563,180.875168 100.265869,180.962982 
	C99.985764,180.986877 99.997177,180.997345 99.999435,181.002289 
z"/>
<path fill="#F2D580" opacity="1.000000" stroke="none" 
	d="
M129.498688,239.506409 
	C129.492249,239.487106 129.505142,239.525696 129.498688,239.506409 
z"/>
<path fill="#E8BA68" opacity="1.000000" stroke="none" 
	d="
M168.495621,247.497528 
	C168.501282,247.514786 168.489960,247.480270 168.495621,247.497528 
z"/>
<path fill="#E6E0D4" opacity="1.000000" stroke="none" 
	d="
M204.910492,195.044556 
	C204.841980,195.098526 204.751175,195.120621 204.742950,195.100739 
	C204.825516,195.058762 204.888199,195.012695 204.910492,195.044556 
z"/>
<path fill="#A5853D" opacity="1.000000" stroke="none" 
	d="
M176.948029,177.031845 
	C176.914932,177.062042 176.970825,176.863876 177.007462,176.900879 
	C177.044098,176.937897 176.981125,177.001648 176.948029,177.031845 
z"/>
</svg>